<svg xmlns="http://www.w3.org/2000/svg" viewBox="0 0 31 31"><path d="M1 1h7v7h-7zM9 1h3v1h-2v1h-1zM13 1h1v1h-1zM16 1h2v1h-1v2h-3v1h-1v1h-1v-1h-1v1h1v5h-1v1h4v-1h1v-1h1v-1h1v-1h1v1h2v1h-1v1h-1v1h-1v-1h-1v2h-6v1h-1v-2h-1v-1h1v-2h-1v-2h1v1h1v-1h-1v-2h-1v-1h2v-1h4v-1h1zM19 1h3v1h-2v1h2v1h-1v2h1v3h-1v-2h-1v-1h-1v1h-1v-2h-1v-1h2v1h1v-1h-1v-1h-1v-1h1zM23 1h7v7h-7zM2 2v5h5v-5zM24 2v5h5v-5zM3 3h3v3h-3zM25 3h3v3h-3zM14 5h1v1h-1zM15 6h1v4h-2v-2h1zM13 7h1v1h-1zM17 7h1v1h-1zM19 7h1v1h-1zM1 9h1v1h-1zM3 9h2v3h1v2h1v1h5v2h-2v-1h-4v-1h-2v-1h1v-1h-1v1h-2v-1h1v-1h-1v-1h2v-1h-1zM6 9h3v2h-1v-1h-1v1h1v1h-2zM23 9h1v1h2v1h1v2h-3v-2h-1zM26 9h1v1h-1zM28 9h2v2h-1v-1h-1zM13 10h1v1h-1zM21 10h1v2h-1zM1 12h1v1h-1zM8 12h1v1h-1zM19 12h2v1h-2zM22 12h1v1h-1zM29 12h1v1h-1zM7 13h1v1h-1zM17 13h2v3h-1v-2h-1zM27 13h2v1h1v2h-1v-1h-2v1h-1v-2h1zM1 14h1v1h1v1h-2zM12 14h1v1h-1zM14 14h1v1h-1zM20 14h4v1h1v1h-2v2h-1v1h-1v-1h-2v-1h1zM13 15h1v1h1v1h-2zM15 15h1v1h-1zM3 16h1v1h-1zM16 16h1v1h-1zM28 16h1v4h-1v2h-1v-3h1zM2 17h1v1h1v1h1v1h-1v2h-2v-1h1v-2h-1zM5 17h1v2h-1zM7 17h2v1h1v1h-1v1h1v1h-2v-1h-2v-1h2v-1h-1zM24 17h1v2h-1zM26 17h1v2h-1zM12 18h3v1h-2v2h-2v-2h1zM1 19h1v1h-1zM19 19h1v2h2v-2h2v1h-1v1h3v3h1v1h1v1h1v1h-2v-1h-1v1h-2v-1h-1v2h-1v-1h-2v-1h1v-2h-2v-1h-1v-2h-1v2h-2v1h-1v-1h-1v1h1v2h-1v-1h-1v-1h-1v-2h2v-1h2v1h1v-2h3zM25 19h1v1h-1zM29 20h1v3h-1zM5 21h1v1h-1zM7 21h1v1h-1zM10 21h1v1h-1zM9 22h1v3h-1zM22 22v3h3v-3zM1 23h7v7h-7zM17 23h1v2h-1zM23 23h1v1h-1zM27 23h1v1h-1zM2 24v5h5v-5zM28 24h2v2h-1v-1h-1zM3 25h3v3h-3zM10 25h1v2h1v-1h1v1h1v2h-1v-1h-1v2h-1v-2h-2v-2h1zM15 25h2v1h-1v1h-2v-1h1zM18 25h1v1h-1zM17 26h1v1h2v1h-2v1h-1v-1h-1v-1h1zM29 27h1v1h-1zM15 28h1v1h-1zM20 28h2v2h-2zM25 28h1v1h1v1h-3v-1h1zM28 28h1v2h-1zM9 29h1v1h-1zM14 29h1v1h-1zM16 29h1v1h-1zM18 29h1v1h-1z"/></svg>