<svg xmlns="http://www.w3.org/2000/svg" viewBox="0 0 31 31"><path d="M1 1h7v7h-7zM9 1h4v1h-2v1h-2zM16 1h2v1h-1v2h-4v-2h1v1h1v-1h1zM19 1h3v1h-2v1h2v1h-1v2h1v3h-1v-2h-1v-1h-1v1h-1v-2h-1v-1h2v1h1v-1h-1v-1h-1v-1h1zM23 1h7v7h-7zM2 2v5h5v-5zM24 2v5h5v-5zM3 3h3v3h-3zM11 3h1v3h2v2h-1v-1h-1v1h1v1h-2v1h-1v-1h-1v-2h1v1h1v-3h-2v-1h2zM25 3h3v3h-3zM14 5h1v1h-1zM15 6h1v4h-2v-2h1zM17 7h1v1h-1zM19 7h1v1h-1zM18 8h1v1h2v1h-1v1h-1v1h-1v-1h-1v2h-4v1h-1v-2h-1v3h-2v1h-3v1h3v1h-3v1h2v1h-3v1h-2v-3h-2v-2h1v-1h1v1h1v1h1v-1h-1v-2h1v1h1v-2h2v-1h-1v-1h5v-1h1v2h2v-1h1v-1h1v-1h1zM1 9h1v1h-1zM3 9h2v1h-1v1h-1v1h1v2h-1v-1h-2v-2h1v-1h1zM6 9h3v1h-2v1h-1zM23 9h1v1h2v2h1v1h-3v-2h-1zM26 9h1v1h-1zM28 9h2v2h-1v-1h-1zM21 10h1v2h-1zM4 11h2v1h-2zM27 11h1v1h-1zM9 12v1h1v-1zM19 12h2v1h-2zM22 12h1v1h-1zM28 12h2v1h-1v1h1v2h-1v-1h-2v1h-1v-2h1v-1h1zM17 13h2v3h-1v-2h-1zM1 14h1v1h-1zM7 14v1h1v-1zM13 14h2v1h-1v1h-1zM20 14h4v1h1v1h-2v2h-1v1h-1v-1h-2v-1h1zM11 15h1v2h2v1h-1v3h2v1h1v-2h3v-1h1v2h2v-2h2v1h-1v1h3v3h1v1h1v1h1v1h-2v-1h-1v1h-2v-1h-1v2h-1v-1h-2v-1h1v-2h-2v-1h-1v-2h-1v2h-2v1h-1v-1h-1v-1h-1v-1h-2v4h-1v-4h-1v-1h1v-2h1v1h2v-1h-2v-1h-1v-1h2zM15 15h1v1h-1zM14 16h1v1h-1zM16 16h1v1h-1zM28 16h1v4h-1v2h-1v-3h1zM24 17h1v2h-1zM26 17h1v2h-1zM4 18v1h1v-1zM14 18h1v1h-1zM1 19h1v1h-1zM25 19h1v1h-1zM29 20h1v3h-1zM2 21h1v1h-1zM7 21h1v1h-1zM22 22v3h3v-3zM1 23h7v7h-7zM12 23h1v1h-1zM17 23h1v2h-1zM23 23h1v1h-1zM27 23h1v1h-1zM2 24v5h5v-5zM11 24h1v3h1v2h-1v1h-1v-1h-1v-1h1zM13 24h1v2h1v-1h2v1h-1v1h-1v1h-1v-1h-1zM28 24h2v2h-1v-1h-1zM3 25h3v3h-3zM18 25h1v1h-1zM9 26h1v2h-1zM17 26h1v1h2v1h-2v1h-1v-1h-1v-1h1zM29 27h1v1h-1zM15 28h1v1h1v1h-4v-1h2zM20 28h2v2h-2zM25 28h1v1h1v1h-3v-1h1zM28 28h1v2h-1zM9 29h1v1h-1zM18 29h1v1h-1z"/></svg>