<svg xmlns="http://www.w3.org/2000/svg" viewBox="0 0 35 35"><path d="M1 1h7v7h-7zM9 1h1v1h-1zM14 1h1v1h1v2h-1v-1h-1zM17 1h1v1h-1zM24 1h2v3h-1v1h-3v-3h1v1h2v-1h-1zM27 1h7v7h-7zM2 2v5h5v-5zM19 2h2v1h-1v1h-1v1h-1v1h-1v-2h1v-1h1zM28 2v5h5v-5zM3 3h3v3h-3zM10 3h1v1h-1zM13 3h1v1h-1zM29 3h3v3h-3zM9 4h1v1h1v1h-1v6h-1v1h-1v-1h-3v-1h-1v1h-2v1h-1v-4h1v2h1v-1h2v-1h1v1h1v1h2v-1h-2v-1h2zM11 4h2v2h-1v-1h-1zM20 4h1v2h-1zM14 5h1v1h-1zM15 6h2v1h-1v1h-1zM18 6h1v1h-1zM21 6h1v2h1v-1h1v1h1v1h-1v1h-1v-1h-1v1h-1v-1h-1v-1h1zM11 7h1v2h3v1h-1v1h-1v-1h-1v1h-1zM13 7h1v1h-1zM17 7h1v1h-1zM19 7h1v1h-1zM25 7h1v1h-1zM18 8h1v2h1v2h-1v-1h-1zM16 9h1v2h1v1h-1v1h1v1h-2v-2h-1v2h1v1h1v1h1v-1h1v1h1v1h1v1h-1v1h-1v-1h-1v-1h-3v-2h-1v-1h-2v-1h-1v-1h1v-1h1v2h1v-2h1v-1h1zM25 9h6v1h-2v1h2v-1h2v-1h1v2h-1v2h1v1h-2v-2h-1v2h1v1h-2v-2h-2v1h1v1h-2v2h-1v1h-1v-2h1v-2h1v-2h1v-1h-1v-1h-2zM22 10h1v1h-1zM24 10h1v1h1v1h-1v1h-1v1h-1v-2h1zM21 12h1v1h-1zM7 13h1v1h-1zM9 13h2v1h-1v1h-2v-1h1zM20 13h1v1h1v1h1v2h1v1h-2v-2h-1v-1h-2v-1h1zM25 13h1v1h-1zM1 14h1v5h1v1h-2zM3 14h1v2h1v1h-1v1h2v1h-3zM5 14h2v1h-2zM7 15h1v1h-1zM11 15h2v1h-1v1h3v1h-2v1h-1v2h-1v1h-1v-1h-2v-1h-1v-1h2v1h1v-2h-4v-1h3v-1h1v1h1zM24 15h1v1h-1zM29 15h1v3h-1v-1h-1v-1h1zM27 17h1v1h-1zM31 17h1v1h1v-1h1v2h-1v1h-1v-1h-1zM17 18h1v1h1v1h1v1h2v1h-1v2h1v-1h1v1h1v-1h1v2h-1v2h-2v-1h-1v-1h-1v-3h-1v-1h-1v-1h-2v-1h1zM24 18h1v2h1v-2h1v1h4v6h-1v3h1v2h-3v2h1v-1h2v1h-1v1h2v1h-3v-1h-2v1h-2v-1h-1v-3h1v-5h2v-1h-1v-2h1v-1h-1v1h-1v-1h-1v-1h-1v1h-1v-1h-1v-1h3zM13 19h2v1h1v1h-1v2h-1v-3h-1zM6 20h1v1h1v1h-1v1h1v-1h1v1h1v1h-1v1h-1v-1h-2v2h-2v-2h-1v-1h-2v-1h1v-1h2v1h1v1h1zM33 20h1v2h-1zM12 21h1v1h-1zM16 21h1v1h-1zM28 21v1h1v1h1v-2zM11 22h1v1h2v2h-1v-1h-2zM17 22h1v1h1v2h-1v-1h-1zM23 22h1v1h-1zM32 22h1v1h-1zM15 23h1v1h-1zM10 24h1v1h-1zM32 24h1v1h-1zM1 25h2v1h-2zM7 25h1v1h-1zM14 25h3v1h-1v1h1v1h-2v-1h-2v-1h1zM9 26h1v1h1v1h-2zM11 26h1v1h-1zM17 26h2v1h-2zM26 26v3h3v-3zM31 26h3v1h-1v2h1v1h-1v1h-2v-1h1v-3h-1zM1 27h7v7h-7zM19 27h1v1h-1zM21 27h1v1h-1zM27 27h1v1h-1zM2 28v5h5v-5zM11 28h3v1h-1v2h1v2h1v-2h2v1h1v-1h1v-1h1v-2h1v2h1v1h1v2h1v1h-4v-1h2v-1h-1v-1h-1v1h-1v1h-3v1h-3v-2h-1v-2h-3v-1h2zM17 28h1v2h-1zM23 28h1v2h-1zM3 29h3v3h-3zM14 29h1v2h-1zM26 30v2h1v-2zM10 31h1v1h-1zM11 32h1v1h-1zM9 33h1v1h-1zM33 33h1v1h-1z"/></svg>