<svg xmlns="http://www.w3.org/2000/svg" viewBox="0 0 35 35"><path d="M1 1h7v7h-7zM9 1h1v1h2v1h1v2h-2v-1h-1v-1h-1zM12 1h1v1h-1zM14 1h1v2h-2v-1h1zM17 1h3v2h-1v-1h-2zM21 1h2v1h-1v1h-1zM24 1h2v1h-1v1h-1zM27 1h7v7h-7zM2 2v5h5v-5zM28 2v5h5v-5zM3 3h3v3h-3zM16 3h1v1h1v1h-2v1h-1v-2h1zM18 3h1v1h-1zM20 3h1v1h-1zM29 3h3v3h-3zM9 4h1v1h-1zM22 4h2v1h-2zM25 4h1v2h-2v-1h1zM10 5h1v2h-1zM13 5h1v1h1v1h-1v1h-1zM18 5h1v1h-1zM21 5h1v1h-1zM19 6h2v1h-1v1h1v-1h1v2h-1v2h-2v-1h-1v-2h1zM23 6h1v2h-1zM9 7h1v1h1v2h-1v-1h-1zM11 7h1v1h-1zM15 7h1v1h-1zM17 7h1v1h-1zM25 7h1v1h-1zM12 8h1v1h1v2h-2v1h3v-1h1v2h-2v1h-1v1h-1v1h-1v1h2v3h-1v-2h-2v-1h-1v-1h-4v-3h1v-1h1v1h1v-1h-1v-1h1v-1h-1v1h-1v-2h3v1h1v1h-1v1h1v1h-1v1h1v1h1v-1h1v-1h-1v-3h1zM24 8h1v1h-1zM1 9h1v1h1v2h1v1h-2v-2h-1zM3 9h2v1h-2zM27 9h1v1h1v1h-1v2h-1v1h-1v-3h1zM30 9h1v1h1v1h-1v1h-1v1h-1v-2h1zM32 9h2v1h-2zM17 10h1v1h1v1h-1v1h-1zM22 10h2v1h-1v1h-1v1h-2v2h2v1h-2v3h-1v1h-1v-2h1v-3h-1v2h-1v-1h-1v-1h1v-1h2v-2h2v-1h1zM5 11h1v1h-1zM24 11h1v1h-1zM32 11h2v2h-1v-1h-1zM23 12h1v1h1v1h1v1h-2v-1h-2v-1h1zM1 13h1v1h-1zM28 13h1v2h1v1h-1v1h1v-1h1v-2h2v2h-1v1h-1v2h-1v1h-1v1h-3v-1h2v-1h1v-1h-1v1h-1v-2h1v-2h-1v-1h1zM30 13h1v1h-1zM2 14h2v1h-1v1h-2v-1h1zM7 14v1h1v-1zM14 14h1v1h-1zM13 15h1v1h-1zM15 16h1v1h-1zM22 16h2v1h1v-1h1v2h-1v1h-1v1h1v1h-2v-2h-1v2h-1v-4h1zM33 16h1v2h-1zM1 17h1v2h-1zM3 17h1v1h-1zM7 17h2v1h1v1h-2v-1h-1zM16 17h1v3h-3v-2h1v1h1zM4 18h3v1h-1v1h1v1h-2v-2h-1zM32 18h1v2h-1zM2 19h2v1h-1v1h2v1h-1v1h-3v-1h1v-1h-1v-1h1zM7 19h1v1h-1zM10 19h1v1h-1zM13 20h1v1h-1zM17 20h1v1h-1zM30 20h1v1h1v1h-1v2h-1v2h2v-2h1v2h1v1h-3v1h-1v2h-1v2h-1v1h-2v-1h-1v-1h1v-1h-2v-1h1v-1h-1v-1h1v-1h-2v-2h-1v1h-1v-3h1v1h2v-1h2v1h-1v1h-1v1h1v-1h2v-1h1v2h1v-2h1v-1h-1v-1h1zM33 20h1v1h-1zM7 21h2v1h1v1h-1v1h-2v1h4v1h-1v2h1v1h-2v-3h-3v-2h-1v-2h1v1h2v-1h-1zM10 21h3v1h-3zM14 21h2v1h-2zM19 21h2v1h-1v3h-1v-1h-1v1h1v2h-4v-1h-2v-1h1v-2h2v1h-1v1h2v-2h2zM13 22h1v1h-1zM16 22h1v1h-1zM32 22h2v2h-1v-1h-1zM11 23h1v1h-1zM2 24h1v1h-1zM12 24h1v1h-1zM1 25h1v1h-1zM4 25h1v1h-1zM11 26h2v2h1v1h1v-1h2v1h-1v3h-1v1h-1v-1h-1v-1h1v-1h-1v-1h-1v-1h-1zM20 26h1v2h-1zM22 26h1v4h1v1h-1v1h-1v-1h-2v2h1v1h-6v-1h1v-1h2v-1h1v-1h2v-2h1zM26 26v3h3v-3zM1 27h7v7h-7zM27 27h1v1h-1zM2 28v5h5v-5zM31 28h1v3h-2v-1h1zM3 29h3v3h-3zM11 29h1v1h1v1h-1v2h1v1h-2v-1h-1v-1h-1v-2h1v1h1zM18 29h1v1h-1zM33 29h1v2h-1zM27 30v1h1v-1zM21 32h1v1h-1zM23 32h2v2h-1v-1h-1zM29 32h1v1h1v1h-2zM33 32h1v1h-1zM9 33h1v1h-1zM22 33h1v1h-1z"/></svg>