<svg xmlns="http://www.w3.org/2000/svg" viewBox="0 0 35 35"><path d="M1 1h7v7h-7zM9 1h1v2h-1zM11 1h1v1h-1zM13 1h1v2h-2v-1h1zM16 1h2v1h-2zM19 1h3v1h-3zM24 1h1v2h1v6h-1v-3h-1v-2h-1v-1h-1v-1h2zM27 1h7v7h-7zM2 2v5h5v-5zM15 2h1v2h-2v-1h1zM18 2h1v1h-1zM28 2v5h5v-5zM3 3h3v3h-3zM10 3h2v1h2v2h-1v-1h-2v-1h-1zM19 3h3v1h-2v2h-1v1h-1v1h1v-1h1v1h1v1h-1v1h1v-1h2v2h-1v2h1v-1h1v2h-2v2h-2v-1h1v-2h-1v-1h1v-1h-1v1h-1v-1h-3v-1h-1v2h-1v-1h-1v-1h-2v-1h2v-2h1v2h2v-1h1v-1h-1v-1h1v-1h2zM29 3h3v3h-3zM9 4h1v1h-1zM16 4h1v1h-1zM10 5h1v2h-1zM22 5h1v1h-1zM23 6h1v3h-1zM9 7h1v1h1v1h-2zM11 7h1v1h-1zM15 7h1v1h-1zM21 7h1v1h-1zM1 9h1v1h-1zM3 9h2v1h1v1h-1v1h-1v1h2v4h-1v3h-2v-1h1v-1h-1v-2h2v-1h-1v-1h-2v1h-1v-2h2v-2h-1v-1h1zM6 9h3v3h-3v-1h2v-1h-2zM17 9v1h1v-1zM24 9h1v2h1v-1h1v-1h1v1h1v1h-2v2h-1v2h-2v-1h1v-2h-1zM30 9h1v1h1v-1h2v1h-1v1h1v3h-1v3h-2v2h-1v1h-2v-1h1v-1h-1v1h-1v-2h3v-1h1v-1h1v-3h-1v-1h-1zM10 10h1v1h-1zM1 11h1v1h-1zM12 11h1v1h-1zM9 12h1v2h-1zM11 12h1v1h-1zM17 12h2v1h-1v1h-2v2h1v1h-1v1h-3v-4h2v-1h2zM29 12h1v1h-1zM7 13h1v1h-1zM28 13h1v2h1v1h-2zM30 13h1v2h-1zM10 14h2v2h-1v1h1v1h1v1h3v-1h2v2h-3v1h1v1h1v-1h1v2h-1v2h-1v1h-1v1h1v2h-1v1h1v1h-2v-2h-2v1h1v1h1v2h-1v-1h-1v-1h-1v-1h-1v-1h1v-1h-1v1h-1v-4h2v-1h1v-2h-1v-1h1v-1h-1v-2h-2v-1h1zM18 14h1v1h-1zM7 15h1v1h-1zM14 15v2h1v-2zM26 15h1v2h-1v3h-1v-2h-1v2h-1v-2h-1v2h-1v-3h1v-1h1v1h1v-1h2zM8 16h1v1h-1zM1 17h1v1h1v1h-2zM6 17h2v1h-2zM19 17h1v4h-2v-1h1zM33 17h1v2h-2v-1h1zM7 19h2v2h1v1h-3v-1h1v-1h-1zM1 20h2v1h-2zM13 20v1h1v-1zM24 20h1v1h-1zM27 20h1v1h-1zM30 20h1v1h1v1h1v-2h1v4h-1v-1h-2v-1h-2v-1h1zM4 21h2v2h-1v2h-1v1h-1v-1h-1v-1h2v-1h-3v-1h3zM20 21h1v1h-1zM14 22v1h-1v2h-1v1h-2v1h2v-1h1v2h1v-2h-1v-1h1v-2h1v-1zM21 22h2v1h-1v2h-1v-1h-3v-1h3zM26 22h1v1h-1zM7 23h1v1h-1zM9 23h2v1h-2zM24 23h2v1h-2zM28 23h1v1h-1zM26 24h1v1h2v-1h2v1h-1v1h1v-1h1v2h-2v2h1v-1h1v1h1v1h-2v1h-1v-1h-1v2h-1v-2h-4v2h-2v-1h1v-2h-1v-1h1v-1h1v-1h1v-1h1zM1 25h1v1h-1zM5 25h3v1h-3zM18 25h1v1h-1zM20 25h1v1h-1zM23 25h1v1h-1zM16 26h2v1h3v1h-1v2h-1v1h-1v1h-2v-1h1v-4h-1zM26 26v3h3v-3zM33 26h1v1h-1zM1 27h7v7h-7zM27 27h1v1h-1zM2 28v5h5v-5zM24 28v1h1v-1zM33 28h1v1h-1zM3 29h3v3h-3zM21 29h1v1h-1zM9 30h1v2h-1zM20 30h1v1h-1zM33 30h1v1h-1zM19 31h1v1h2v1h-1v1h-3v-2h1zM25 31h1v1h-1zM10 32h2v1h-1v1h-2v-1h1zM15 32h1v2h-2v-1h1zM24 32h1v2h-3v-1h2zM27 32h1v1h-1zM33 32h1v1h-1zM12 33h1v1h-1zM26 33h1v1h-1zM28 33h2v1h-2z"/></svg>