<svg xmlns="http://www.w3.org/2000/svg" viewBox="0 0 35 35"><path d="M1 1h7v7h-7zM10 1h1v1h-1zM13 1h4v1h1v1h-1v1h2v-2h-1v-1h2v3h1v1h1v1h1v1h-1v1h-1v-1h-1v1h1v1h-6v-2h-1v1h-1v-2h1v-1h-1v-2h1v-1h-1zM23 1h3v1h-1v1h1v1h-1v1h-3v-1h2v-1h-2v-1h1zM27 1h7v7h-7zM2 2v5h5v-5zM12 2h1v1h-1zM28 2v5h5v-5zM3 3h3v3h-3zM10 3h2v2h-1v-1h-1zM15 3v1h1v-1zM29 3h3v3h-3zM10 5h1v1h-1zM12 5h1v1h-1zM16 5v1h2v2h1v-3zM9 6h1v2h-1zM11 7h1v1h1v1h-2zM16 7v1h1v-1zM23 7h1v1h1v1h2v1h1v-1h1v2h1v-1h3v1h-1v1h-5v-1h-1v1h-1v-1h-2v2h-1v-1h-1v1h-1v2h-1v3h1v1h-1v1h-2v-2h1v-1h-1v-1h-1v1h-4v-3h1v2h2v-3h1v-1h1v1h1v1h-1v1h1v-1h1v-3h3v-1h2v-1h-2v-1h1zM25 7h1v1h-1zM1 9h1v1h-1zM4 9h1v2h-1zM6 9h2v1h-1v1h1v-1h1v1h1v1h1v1h1v1h-1v2h-1v1h-2v-1h1v-1h1v-1h-1v-2h-2v1h1v1h-1v1h-3v-1h-1v-1h-1v-1h1v-1h1v2h1v1h1v-1h-1v-2h1zM9 9h1v1h-1zM13 9h2v2h1v1h-1v1h-1v1h-1v-1h-1v-1h-1v-2h1v1h1v1h1v-2h-1zM2 10h1v1h-1zM17 10h2v1h-1v1h-1zM1 11h1v1h-1zM33 11h1v1h-1zM26 12h1v1h1v1h-2zM1 13h1v1h-1zM21 13h1v1h2v-1h1v1h1v1h1v2h1v-2h1v-2h2v1h-1v1h1v1h-2v1h1v1h-1v1h1v1h1v1h-1v1h-1v-2h-2v-1h1v-1h-2v-2h-1v1h-1v1h-4v-2h1v1h1v-1h2v-1h-2v1h-1zM33 13h1v2h-3v-1h2zM2 14h1v1h-1zM8 14h1v1h-1zM1 15h1v2h2v1h-2v1h-1zM7 15h1v1h-1zM5 16h2v1h-1v1h-1zM32 16h1v1h-1zM7 17h1v1h-1zM10 17h1v2h-1zM16 17h1v1h-1zM31 17h1v1h-1zM33 17h1v3h-2v-2h1zM4 18h1v2h-1v1h1v1h-1v1h-1v-2h-1v1h-1v-2h1v-1h2zM6 18h1v1h-1zM8 18h1v1h1v1h-1v2h-2v1h1v1h-1v1h-1v-1h-1v-1h1v-3h1v1h1v-1h-1v-1h1zM14 18h1v2h-1zM24 18h1v1h-1zM11 19h2v1h-1v2h-2v-2h1zM22 19h1v2h-1zM13 20h1v2h-1zM15 20h2v1h-1v1h-1zM24 20h1v1h1v-1h1v3h1v1h-1v1h1v-1h1v1h1v1h2v-2h-1v-2h1v1h1v-1h1v4h-1v3h1v1h-2v-2h-1v2h1v1h-2v1h-1v-2h-1v1h-1v3h-2v-1h1v-1h-1v-1h1v-1h-1v-1h-1v-1h1v-2h-1v-1h1v-2h1v-1h-2zM18 21h1v2h-1zM32 21h1v1h-1zM9 22h1v1h-1zM12 22h1v1h1v-1h1v2h2v1h-3v-1h-1v1h-1v1h-1v1h-2v-1h1v-1h-1v-1h1v-1h1v1h1zM16 22h1v1h-1zM20 22h2v1h2v1h-1v2h-1v1h-2v-1h1v-1h1v-1h-2zM1 23h2v1h2v1h-1v1h-1v-1h-1v-1h-1zM17 23h1v1h-1zM29 23h1v1h-1zM19 24h1v1h-1zM1 25h1v1h-1zM7 25h2v1h-2zM13 25h1v1h-1zM18 25h1v2h1v1h2v-1h1v3h-2v1h-1v2h-2v-1h-2v-2h2v1h1v-2h-1zM23 26h1v1h-1zM26 26v3h3v-3zM1 27h7v7h-7zM11 27h1v1h-1zM14 27h1v1h2v1h-1v1h-1v-1h-3v-1h2zM27 27h1v1h-1zM2 28v5h5v-5zM9 28h2v1h-2zM3 29h3v3h-3zM11 29h1v1h-1zM9 30h2v2h1v1h-1v1h-2v-1h1v-2h-1zM12 30h1v1h-1zM14 30h1v2h-2v-1h1zM21 31h1v1h-1zM23 31h1v1h-1zM33 31h1v1h-1zM15 32h1v1h2v1h-3zM22 32h1v2h-1zM24 32h1v1h-1zM28 32h1v1h1v1h-2zM31 33h2v1h-2z"/></svg>