<svg xmlns="http://www.w3.org/2000/svg" viewBox="0 0 35 35"><path d="M1 1h7v7h-7zM9 1h1v1h1v-1h1v1h2v1h-1v1h-2v-1h-1v1h-1zM15 1h1v1h-1zM19 1h2v1h1v1h-1v1h-3v-2h1v1h1v-1h-1zM22 1h2v1h-2zM25 1h1v4h-1zM27 1h7v7h-7zM2 2v5h5v-5zM28 2v5h5v-5zM3 3h3v3h-3zM22 3h1v1h-1zM29 3h3v3h-3zM10 4h1v1h-1zM21 4h1v1h1v1h-2zM9 5h1v1h-1zM15 5h2v1h-2zM18 5h2v1h-1v1h-1zM24 5h1v1h1v3h1v1h-2v-3h-1v1h-1v-2h1zM10 6h3v1h-1v2h1v-2h1v1h1v1h-1v1h-3v-1h-1v-1h1v-1h-1zM9 7h1v1h-1zM15 7h1v1h-1zM17 7h1v1h-1zM19 7h1v1h-1zM21 7h1v2h-1zM1 9h1v1h1v1h1v1h-2v1h1v1h-2zM4 9h6v1h-4v2h-1v-2h-1zM16 9h1v2h2v-1h1v-1h1v1h1v3h1v1h-2v1h2v1h-1v2h1v-1h2v1h-1v1h-3v1h1v1h-1v1h-1v-1h-3v-1h-1v-1h-1v-1h2v1h1v1h2v-2h1v-2h-1v-2h-2v2h-1v-4h-1v2h-2v1h-1v-1h-1v2h-6v-1h3v-4h1v-1h1v1h2v1h-1v1h3v-3h1zM18 9h1v1h-1zM22 9h1v1h-1zM29 9h1v2h-1zM31 9h3v5h-2v-1h-2v1h-1v1h-3v-1h1v-2h-1v1h-3v-1h1v-1h4v1h3v-1h2v-1h-2zM7 11h1v1h-1zM20 11v1h-1v1h2v-2zM4 12h1v1h-1zM10 12v3h1v-3zM7 13h1v1h-1zM3 14h1v1h-1zM30 14h1v1h-1zM2 15h1v1h1v-1h1v1h1v1h-1v1h-1v2h-1v-3h-1zM15 15h1v1h-1zM25 15h1v2h-1zM29 15h1v1h2v1h1v-1h1v2h-2v2h1v-1h1v2h-3v-1h-1v-1h1v-1h-1v1h-1zM32 15h1v1h-1zM14 16h1v2h-1v2h1v1h2v1h-1v1h1v-1h1v1h1v2h-2v-1h-1v1h-1v1h1v-1h1v1h1v1h-1v1h-1v-1h-2v-2h-1v-6h-1v1h-2v1h-1v4h-1v-1h-1v-1h1v-1h-1v-1h1v-1h-2v-1h-1v-1h1v-1h3v2h2v-1h-1v-1h4zM16 16h1v1h-1zM19 16h1v1h-1zM27 16h1v3h1v2h2v2h1v2h-1v1h1v1h-2v3h-1v1h2v1h1v-2h1v-2h1v5h-2v1h-4v-1h-1v-1h1v-2h-2v4h-2v-1h1v-1h-1v1h-1v-1h-1v1h-1v1h-1v-2h-1v-1h2v-2h1v1h2v-1h1v-1h-1v-2h1v-1h2v-3h1v-1h-1v-1h-1v-1h-1v-1h2zM7 18v1h1v-1zM24 19h1v1h-1zM5 20h1v1h-1zM23 20h1v1h-1zM25 20h1v4h-1v1h-2v-2h-1v-2h1v1h2zM1 21h3v1h-1v1h-1v2h3v1h-4zM11 21h1v2h-1v1h-1v-2h1zM4 22h1v1h1v1h1v1h-2v-1h-1zM14 22v2h1v-2zM19 22h1v1h-1zM32 22h1v1h-1zM21 23h1v3h-2v-2h1zM33 23h1v1h-1zM11 24h1v1h-1zM28 24v1h1v-1zM7 25h1v1h-1zM12 25h1v3h1v1h-1v1h-1v1h1v-1h1v-1h3v1h-1v2h-1v1h-2v1h-4v-1h1v-1h1v-2h-1v1h-1v-5h1v1h1v-1h1zM33 25h1v2h-1zM19 26h1v1h1v1h-2zM22 26h1v1h-1zM26 26v3h3v-3zM1 27h7v7h-7zM27 27h1v1h-1zM2 28v5h5v-5zM10 28v1h1v-1zM17 28h1v1h-1zM23 28h1v1h-1zM31 28h1v1h-1zM3 29h3v3h-3zM18 29h2v1h-1v1h-1zM17 31h1v2h1v1h-2v-1h-1v-1h1zM29 32v1h1v-1zM15 33h1v1h-1z"/></svg>