<svg xmlns="http://www.w3.org/2000/svg" viewBox="0 0 35 35"><path d="M1 1h7v7h-7zM9 1h1v1h2v1h2v1h-2v1h-1v-1h-1v-1h-1zM12 1h1v1h-1zM14 1h1v2h-1zM17 1h3v2h-1v-1h-2zM21 1h2v1h-1v1h-1zM24 1h2v1h-1v1h-1zM27 1h7v7h-7zM2 2v5h5v-5zM28 2v5h5v-5zM3 3h3v3h-3zM16 3h1v1h1v1h-2v1h-1v-2h1zM18 3h1v1h-1zM20 3h1v1h-1zM29 3h3v3h-3zM9 4h1v1h-1zM22 4h2v1h-2zM25 4h1v2h-2v-1h1zM10 5h1v1h-1zM13 5h1v1h1v1h-1v1h-1zM18 5h1v1h-1zM21 5h1v1h-1zM11 6h1v2h1v2h-1v-1h-3v-2h1v1h1zM19 6h2v1h-1v1h1v-1h1v2h-1v2h-2v-1h-1v-2h1zM23 6h1v2h-1zM15 7h1v1h-1zM17 7h1v1h-1zM25 7h1v1h-1zM24 8h1v1h-1zM1 9h1v2h-1zM3 9h2v1h-2zM6 9h3v1h1v1h-2v-1h-2zM27 9h1v1h1v1h1v2h-1v-1h-1v1h-1v1h-1v-3h1zM30 9h1v1h1v1h2v2h-1v-1h-2v-1h-1zM32 9h2v1h-2zM11 10h1v1h1v2h-2zM17 10h1v1h1v1h-1v1h-1zM22 10h2v1h-1v1h-1v1h-2v2h2v1h-2v3h-1v1h-1v-2h1v-3h-1v2h-1v-1h-1v1h1v3h-4v-2h-1v1h-1v-2h3v1h1v1h1v-1h-1v-2h-2v-1h4v-1h2v-2h2v-1h1zM2 11h4v1h-3v1h-1zM7 11h1v1h-1zM15 11h1v2h-2v-1h1zM24 11h1v1h-1zM6 12h1v1h1v-1h1v2h1v2h1v1h-1v2h1v1h-1v1h-2v-1h1v-2h-3v-1h3v-1h-3v1h-1v-4h1zM23 12h1v1h1v1h1v1h-2v-1h-2v-1h1zM1 13h1v1h1v-1h1v2h-1v2h2v1h1v2h1v1h-2v-1h-1v-2h-2v-3h-1zM13 13h1v1h-1zM28 13h1v2h1v1h-1v1h1v-1h1v-2h2v2h-1v1h-1v1h-1v1h-1v-1h-1v1h-1v-2h1v-2h-1v-1h1zM30 13h1v1h-1zM7 14v1h1v-1zM11 14h2v1h-2zM22 16h2v1h1v-1h1v2h-1v1h-1v1h1v1h-2v-2h-1v2h-1v-4h1zM33 16h1v2h-1v2h-1v-3h1zM1 18h1v1h-1zM2 19h1v2h2v1h-1v1h-3v-1h1v-1h-1v-1h1zM7 19h1v1h-1zM28 19h1v1h-1zM12 20h1v2h-2v3h-1v-2h-1v1h-3v1h4v3h1v1h-2v-3h-5v-1h1v-3h1v1h2v-1h2v-1h2zM17 20h1v1h-1zM26 20h2v1h-2zM30 20h1v1h1v1h-1v2h-1v3h2v4h-2v-1h1v-2h-1v2h-1v2h1v1h1v1h-2v-1h-3v-1h-1v-1h1v-1h-2v-1h1v-1h-1v-1h1v-1h-2v-2h-1v1h-1v-3h1v1h2v-1h2v1h-1v1h-1v1h1v-1h2v-1h1v2h1v-2h1v-1h-1v-1h1zM33 20h1v1h-1zM7 21h1v1h-1zM14 21h2v1h-1v1h-2v-1h1zM19 21h2v1h-1v3h-1v-1h-1v1h1v2h-4v-2h2v-2h2zM16 22h1v1h-1zM32 22h2v2h-1v-1h-1zM2 24h1v1h-1zM12 24h1v1h-1zM32 24h1v2h1v1h-2zM1 25h1v1h-1zM12 26h1v3h-1v-1h-1v-1h1zM20 26h1v2h-1zM22 26h1v4h1v1h-1v1h-1v-1h-2v2h1v1h-6v-1h1v-1h2v-1h1v-1h2v-2h1zM26 26v3h3v-3zM1 27h7v7h-7zM27 27h1v1h-1zM2 28v5h5v-5zM15 28h2v1h-1v3h-3v-1h2v-1h-2v-1h2zM3 29h3v3h-3zM11 29h1v1h1v1h-2zM18 29h1v1h-1zM33 29h1v2h-1zM9 30h1v1h1v3h-2v-1h1v-1h-1zM27 30v1h1v-1zM21 32h1v1h-1zM23 32h2v2h-1v-1h-1zM33 32h1v1h-1zM12 33h1v1h-1zM22 33h1v1h-1z"/></svg>