<svg xmlns="http://www.w3.org/2000/svg" viewBox="0 0 35 35"><path d="M1 1h7v7h-7zM11 1h4v1h2v1h-2v1h-3v-1h2v-1h-2v1h-1zM17 1h3v1h-1v1h1v1h-2v1h-1v1h1v2h-1v-1h-1v-2h-1v-1h2v-1h1v-1h-1zM21 1h2v2h1v2h-1v2h-1v-5h-1zM24 1h2v4h-1v-3h-1zM27 1h7v7h-7zM2 2v5h5v-5zM28 2v5h5v-5zM3 3h3v3h-3zM9 3h1v3h2v3h1v2h-1v-1h-1v-3h-1v2h-1zM29 3h3v3h-3zM11 4h1v1h-1zM12 5h1v1h-1zM19 5h1v1h-1zM25 6h1v4h-1zM13 7h1v2h-1zM15 7h1v1h1v1h2v1h-1v2h-1v1h-2v-1h1v-1h1v-1h-1v-1h-1zM19 7h1v1h-1zM21 7h1v1h-1zM23 7h1v1h-1zM20 8h1v1h-1zM22 8h1v1h1v2h-2zM1 9h1v1h1v1h1v2h-1v-1h-1v2h-1zM3 9h5v1h-1v1h1v1h-1v1h2v2h-1v-1h-2v1h-1v1h-1v-2h1v-3h1v-1h-3zM14 9h1v1h-1zM27 9h5v1h-3v1h4v1h1v1h-3v-1h-3v-1h-1zM9 10h1v1h-1zM19 10h2v1h-1v1h-1zM10 11h2v1h-1v1h-2v-1h1zM13 11h1v1h-1zM25 11h2v1h-1v1h-1zM21 12h2v1h2v1h-2v1h1v3h-1v-1h-1v-1h-1v-2h1v-1h-1zM27 12h1v1h-1zM13 13h1v1h4v1h-2v2h-1v1h-1v-2h1v-1h-2zM19 13h1v1h-1zM26 13h1v1h-1zM28 13h1v1h-1zM30 13h1v2h-1zM2 14h1v1h-1zM10 14h2v1h-1v1h1v1h-1v4h-1v-2h-2v-1h-2v-3h2v1h-1v1h2v1h1v-1h-1v-2h1zM32 14h2v1h-2zM1 15h1v2h1v1h-2zM25 15h2v1h-1v1h-1zM17 16h1v1h-1zM19 16h1v1h-1zM28 16h1v1h-1zM30 16h2v1h1v1h-1v1h1v1h-1v1h-1v-2h-1v-1h1v-1h-1zM18 17h1v3h1v1h-2v1h-1v1h1v1h-1v1h2v1h-1v2h-1v2h1v1h-2v1h-2v1h-1v1h-1v-2h1v-1h-1v-1h2v-1h1v1h1v-1h-1v-1h1v-1h1v-1h-2v-1h-4v-1h1v-1h1v-3h1v2h1v1h-1v1h1v-1h1v-1h-1v-2h-1v-1h3v1h1v-1h-1v-1h1zM29 17h1v1h-1zM13 18h1v1h-1zM20 18h2v2h-1v-1h-1zM24 18h5v1h1v1h-1v2h-1v-3h-4zM2 19h4v3h-1v-2h-1v3h4v-1h-1v-1h1v-1h1v2h1v2h-1v1h2v1h1v1h-1v2h1v1h-1v1h1v1h-3v-4h1v-1h-1v-1h-3v-1h2v-1h-3v2h-1v-2h-1v-1h-1v3h-1v-5h1v1h1v-1h-1zM7 19h1v1h-1zM12 19h1v1h-1zM23 19h1v3h-2v-2h1zM25 20h2v2h-1v2h-1v-1h-1v-1h1zM30 21h1v2h-1zM32 21h1v1h1v1h-2zM19 22h1v1h-1zM21 22h1v1h-1zM23 23h1v1h-1zM28 23h2v1h-1v1h1v2h2v-2h1v3h-1v1h-1v-1h-1v1h1v2h-2v-1h-3v1h3v1h3v1h1v1h-3v-1h-1v1h-1v-2h-1v2h-4v-1h-1v-2h1v1h1v1h1v-5h-2v-1h1v-1h-1v-1h4v-1h1zM31 23h1v2h-1zM20 24h3v1h-3zM19 26h3v1h-2v1h-1zM26 26v3h3v-3zM1 27h7v7h-7zM14 27h1v1h-1zM27 27h1v1h-1zM2 28v5h5v-5zM13 28h1v1h-1zM21 28h2v1h-2zM3 29h3v3h-3zM19 29h1v1h-1zM21 30h1v1h-1zM32 30h2v1h-2zM18 31h2v1h-2zM17 32h1v1h-1zM9 33h1v1h-1zM14 33h2v1h-2zM18 33h1v1h-1z"/></svg>