<svg xmlns="http://www.w3.org/2000/svg" viewBox="0 0 35 35"><path d="M1 1h7v7h-7zM10 1h1v1h-1zM14 1h3v1h1v1h-1v1h2v-2h-1v-1h2v3h1v1h1v1h1v1h-1v1h-1v-1h-1v1h1v1h-6v-2h-1v1h-1v-2h1v-1h-1v-1h-1v1h-1v-1h-1v-1h2v-1h2zM23 1h3v1h-1v1h1v1h-1v1h-3v-1h2v-1h-2v-1h1zM27 1h7v7h-7zM2 2v5h5v-5zM28 2v5h5v-5zM3 3h3v3h-3zM15 3v1h1v-1zM29 3h3v3h-3zM10 5h1v1h-1zM12 5h1v1h-1zM16 5v1h2v2h1v-3zM9 6h1v2h-1zM11 6h1v2h1v1h-1v1h1v2h-2v-3h-1v-1h1zM16 7v1h1v-1zM23 7h1v1h1v1h2v1h1v-1h1v2h-1v1h-1v-1h-1v1h-1v-1h-2v2h-1v-1h-1v1h-1v2h-1v3h1v1h-1v1h-2v-2h1v-1h-1v-1h-1v-1h-1v-2h1v-1h1v1h1v1h-1v1h1v-1h1v-3h3v-1h2v-1h-2v-1h1zM25 7h1v1h-1zM1 9h1v1h-1zM4 9h1v1h-1zM6 9h2v1h-2zM9 9h1v1h-1zM13 9h2v2h1v1h-1v1h-1v-3h-1zM3 10h1v1h-1zM8 10h1v1h-1zM17 10h2v1h-1v1h-1zM30 10h1v1h1v1h-2zM32 10h1v1h-1zM1 11h1v1h-1zM5 11h3v1h-1v1h1v1h-1v1h1v1h-1v1h-1v-1h-1v-1h-1v-1h-1v-1h-1v-1h3zM9 11h1v1h-1zM33 11h1v1h-1zM10 12h1v1h1v1h-3v-1h1zM26 12h1v1h1v1h-2zM28 12h1v1h-1zM1 13h1v1h-1zM5 13v1h1v-1zM13 13h1v1h-1zM21 13h1v1h2v-1h1v1h1v1h1v2h1v-2h1v-2h2v1h-1v1h1v1h-2v1h1v1h-1v1h1v1h1v1h-1v1h-1v-2h-2v-1h1v-1h-2v-2h-1v1h-1v1h-4v-2h1v1h1v-1h2v-1h-2v1h-1zM33 13h1v2h-3v-1h2zM2 14h1v2h-1v1h2v1h1v1h-2v1h1v1h1v1h-1v1h-1v-2h-1v1h-1v-2h1v-1h-1v-4h1zM8 14h1v1h-1zM12 14h1v2h2v1h-1v1h1v2h-1v-1h-1v-2h-2v1h1v2h2v2h-1v-1h-1v1h-1v2h-1v-1h-1v-1h1v-1h-1v-1h2v-1h-1v-1h-1v-1h-1v-1h1v-1h1v1h1v-1h1zM33 16h1v4h-3v-1h1v-1h-1v-1h2zM5 17h1v1h-1zM7 17h1v1h-1zM16 17h1v1h-1zM6 18h1v1h-1zM24 18h1v1h-1zM7 19h1v1h-1zM22 19h1v2h-1zM6 20h1v1h1v1h-1v1h-1v1h-1v-2h1zM15 20h2v1h-1v1h-1zM24 20h1v1h1v-1h1v3h1v1h-1v1h1v-1h1v1h1v1h2v-2h-1v-2h1v1h1v-1h1v4h-1v3h1v1h-2v-2h-1v-1h-1v1h1v2h1v1h-2v2h-2v-1h1v-2h-1v1h-1v3h-2v-1h1v-1h-1v-1h1v-1h-1v-1h-1v-1h1v-2h-1v-1h1v-2h1v-1h-2zM18 21h1v2h-1zM32 21h1v1h-1zM12 22h1v1h1v-1h1v1h1v1h1v1h-2v-1h-2v1h-2v-1h1zM16 22h1v1h-1zM20 22h2v1h2v1h-1v2h-1v1h-2v-1h1v-1h1v-1h-2zM1 23h2v1h2v1h-1v1h-1v-1h-1v-1h-1zM7 23h1v1h-1zM17 23h1v1h-1zM29 23h1v1h-1zM9 24h1v1h-1zM19 24h1v1h-1zM1 25h1v1h-1zM6 25h3v1h-3zM10 25h1v1h1v1h1v1h1v-1h1v1h2v1h-1v1h-1v-1h-2v2h-1v-1h-1v-1h1v-1h-1v-1h-2v-1h1zM13 25h1v2h-1zM18 25h1v2h1v1h2v-1h1v3h-2v1h-1v2h-2v-1h-2v-2h2v1h1v-2h-1zM23 26h1v1h-1zM26 26v3h3v-3zM1 27h7v7h-7zM27 27h1v1h-1zM2 28v5h5v-5zM9 28h2v1h-2zM3 29h3v3h-3zM9 30h1v1h-1zM14 30h1v2h1v1h2v1h-5v-1h1v-1h-1v-1h1zM10 31h1v2h-1zM21 31h1v1h-1zM23 31h1v1h-1zM33 31h1v1h-1zM22 32h1v2h-1zM24 32h1v1h-1zM9 33h1v1h-1zM11 33h1v1h-1zM31 33h2v1h-2z"/></svg>