<svg xmlns="http://www.w3.org/2000/svg" viewBox="0 0 35 35"><path d="M1 1h7v7h-7zM9 1h1v1h2v3h-1v-1h-1v-1h-1zM12 1h3v2h-1v-1h-2zM17 1h3v2h-1v-1h-2zM21 1h2v1h-1v1h-1zM24 1h2v1h-1v1h-1zM27 1h7v7h-7zM2 2v5h5v-5zM28 2v5h5v-5zM3 3h3v3h-3zM13 3h1v1h-1zM16 3h1v1h1v1h-2v1h-1v-2h1zM18 3h1v1h-1zM20 3h1v1h-1zM29 3h3v3h-3zM9 4h1v1h-1zM22 4h2v1h-2zM25 4h1v2h-2v-1h1zM10 5h1v2h-1zM13 5h1v1h1v1h-1v1h-1zM18 5h1v1h-1zM21 5h1v1h-1zM19 6h2v1h-1v1h1v-1h1v2h-1v2h-2v-1h-1v-2h1zM23 6h1v2h-1zM9 7h1v1h1v-1h1v1h1v2h-1v-1h-3zM15 7h1v1h-1zM17 7h1v1h-1zM25 7h1v1h-1zM24 8h1v1h-1zM1 9h1v1h1v2h1v-2h-1v-1h2v2h1v1h-1v1h-1v2h-2v-1h1v-1h-1v-2h-1zM6 9h3v1h-3zM27 9h1v1h1v2h-1v1h-1v1h-1v-3h1zM30 9h1v1h1v1h2v2h-1v-1h-2v-1h-1zM32 9h2v1h-2zM9 10h1v3h-1v1h1v3h1v1h-1v1h-1v-1h-2v1h-1v1h1v1h-2v-2h-1v-1h2v-4h-1v-1h1v-1h1v1h1v-1h-1v-1h2zM17 10h1v1h1v1h-1v1h-1zM22 10h2v1h-1v1h-1v1h-2v2h2v1h-2v3h-1v1h-1v-2h1v-3h-1v2h-1v-1h-1v1h-2v-1h1v-1h2v-1h2v-2h2v-1h1zM11 11h1v2h-1zM13 11h1v1h1v-1h1v2h-2v1h-1v1h-2v-1h1v-1h1zM24 11h1v1h-1zM23 12h1v1h1v1h1v1h-2v-1h-2v-1h1zM29 12h1v1h-1zM1 13h1v1h-1zM28 13h1v2h1v1h-1v1h1v-1h1v-2h2v2h-1v1h-1v1h-1v1h-1v-1h-1v1h-1v-2h1v-2h-1v-1h1zM30 13h1v1h-1zM7 14v1h1v-1zM14 14h1v1h-1zM1 15h1v1h-1zM13 15h1v1h-1zM2 16h1v1h1v1h-2v1h-1v-2h1zM7 16v1h2v-1zM22 16h2v1h1v-1h1v2h-1v1h-1v1h1v1h-2v-2h-1v2h-1v-4h1zM33 16h1v2h-1zM12 17h2v1h-1v2h-1v-1h-1v-1h1zM16 17h1v3h-3v-2h1v1h1zM31 18h2v2h-2zM2 19h1v3h1v1h-3v-1h1v-1h-1v-1h1zM7 19h2v2h-1v-1h-1zM10 19h1v1h-1zM28 19h1v1h-1zM13 20h1v1h-1zM17 20h1v1h-1zM26 20h2v1h-2zM30 20h1v1h1v1h-1v2h-1v2h1v1h-1v3h-1v2h1v1h1v1h-2v-1h-3v-1h-1v-1h1v-1h-2v-1h1v-1h-1v-1h1v-1h-2v-2h-1v1h-1v-3h1v1h2v-1h2v1h-1v1h-1v1h1v-1h2v-1h1v2h1v-2h1v-1h-1v-1h1zM33 20h1v1h-1zM4 21h1v1h-1zM7 21h1v1h-1zM10 21h3v1h-3zM14 21h2v1h-2zM19 21h2v1h-1v3h-1v-1h-1v1h1v2h-4v-2h2v-2h2zM8 22h2v1h-1v1h-3v1h4v3h1v1h-2v-3h-5v-1h1v-2h3zM13 22h1v1h-1zM16 22h1v1h-1zM32 22h2v2h-1v-1h-1zM10 23h2v1h1v1h-1v1h-1v-1h-1zM14 23h1v2h-1zM2 24h1v1h-1zM32 24h1v2h1v1h-2zM1 25h1v1h-1zM13 25h1v1h-1zM20 26h1v2h-1zM22 26h1v4h1v1h-1v1h-1v-1h-2v2h1v1h-5v-2h2v-1h1v-1h2v-2h1zM26 26v3h3v-3zM1 27h7v7h-7zM11 27h1v1h-1zM13 27h1v1h-1zM27 27h1v1h-1zM2 28v5h5v-5zM12 28h1v1h2v-1h2v1h-1v2h-1v-1h-2v1h-1v2h2v-1h-1v-1h2v3h-6v-1h2v-1h-2v-2h1v1h1v-2h1zM31 28h1v3h-2v-1h1zM3 29h3v3h-3zM18 29h1v1h-1zM33 29h1v2h-1zM27 30v1h1v-1zM21 32h1v1h-1zM23 32h2v2h-1v-1h-1zM33 32h1v1h-1zM22 33h1v1h-1z"/></svg>