<svg xmlns="http://www.w3.org/2000/svg" viewBox="0 0 35 35"><path d="M1 1h7v7h-7zM10 1h6v1h-2v2h-3v1h-2v-3h1zM17 1h3v2h-1v-1h-1v1h-1zM22 1h1v3h-1v1h1v1h-2v-4h1zM24 1h1v1h-1zM27 1h7v7h-7zM2 2v5h5v-5zM12 2v1h1v-1zM25 2h1v3h-1zM28 2v5h5v-5zM3 3h3v3h-3zM15 3h2v1h-1v1h1v-1h1v2h-1v1h-1v-1h-1zM29 3h3v3h-3zM19 4h1v1h-1zM11 5h1v1h2v3h-1v2h-1v-3h1v-1h-1v1h-1v-1h-1v-1h1zM20 6h1v1h-1zM23 6h1v4h1v-3h1v2h2v1h-1v1h-1v1h1v1h-1v1h-2v-1h1v-2h-1v2h-1v-2h-1v-1h1zM9 7h1v2h1v1h-2zM15 7h1v1h-1zM17 7h1v2h-2v-1h1zM19 7h1v1h1v-1h1v2h-1v1h-1v-1h-1zM1 9h1v1h-1zM7 9h1v1h-1zM15 9h1v1h-1zM18 9h1v3h1v1h-1v1h-1v-1h-1v1h-1v-2h-1v2h-1v-2h-1v-1h1v-1h1v1h1v-1h1v2h1zM30 9h3v1h-3zM4 10h1v1h-1zM6 10h1v1h1v1h-3v-1h1zM29 10h1v1h-1zM33 10h1v1h-1zM1 11h3v1h-1v2h-1v-1h-1zM9 11h2v2h1v1h2v1h1v1h-1v1h-1v1h-1v-2h1v-1h-1v1h-1v-2h-1v-1h-1zM28 11h1v2h1v1h-1v1h1v3h-2v-4h-1v-1h1zM30 11h3v1h-1v1h-1v-1h-1zM12 12h1v1h-1zM33 12h1v1h-1zM4 13h2v1h-2zM7 13h1v1h-1zM20 13h3v2h-1v-1h-2zM1 14h1v2h-1zM3 14h1v1h4v1h-1v1h1v-1h1v3h1v1h-1v1h1v-1h1v1h3v1h-1v1h1v1h-2v1h2v1h-2v1h-1v-2h-1v2h-1v-5h-2v-1h1v-1h-1v1h-1v-1h-1v-1h-1v-2h1v-1h-2zM19 14h1v1h-1zM30 14h1v1h-1zM32 14h2v1h-2zM16 15h2v2h1v1h-1v1h-1v1h-1v-1h-1v-2h2v-1h-1zM23 15h1v3h-1zM25 15h1v3h-1zM31 15h1v2h-1zM2 16h1v1h-1zM20 16h2v1h-2zM33 16h1v1h-1zM1 17h1v1h1v1h-2zM10 17h1v1h1v1h-2zM32 17h1v1h-1zM7 18v1h1v-1zM19 18h2v1h1v2h-1v-1h-3v-1h1zM22 18h1v1h-1zM26 18h2v2h-1v-1h-1zM31 18h1v1h-1zM24 19h2v1h1v2h-1v-1h-1v-1h-1zM33 19h1v2h-3v-1h2zM1 20h1v1h-1zM3 20h1v1h-1zM14 20h2v1h-2zM5 21h1v2h-4v2h1v1h-2v-4h4zM19 21h1v1h-1zM24 21h1v1h-1zM28 21h1v1h1v-1h1v2h-4v-1h1zM14 22h1v1h-1zM22 22h2v1h-1v1h-2v-1h1zM32 22h1v1h-1zM6 23h2v1h-1v1h-1zM10 23v1h1v-1zM18 23h2v1h-2zM25 23h1v2h4v1h1v-1h-1v-1h4v2h-2v1h-1v1h-1v1h1v1h-1v1h1v1h1v1h1v1h-2v-1h-1v-1h-2v-2h-2v2h-2v-2h1v-2h-1v-3h1zM3 24h1v1h-1zM14 24h1v1h-1zM16 24h2v2h2v-1h2v2h1v1h-1v1h-1v-2h-2v1h1v1h-2v-2h-1v1h-1v1h2v1h-5v-1h2v-1h-2v-1h1v-1h1v1h1v-1h1v-1h-1zM23 24h1v1h-1zM4 25h2v1h-2zM7 25h1v1h-1zM15 25h1v1h-1zM26 26v3h3v-3zM1 27h7v7h-7zM10 27h1v1h-1zM27 27h1v1h-1zM32 27h1v1h-1zM2 28v5h5v-5zM11 28h2v1h-1v1h-1zM23 28h1v2h-2v-1h1zM31 28h1v1h-1zM33 28h1v1h-1zM3 29h3v3h-3zM32 29h1v1h1v2h-2v-1h-1v-1h1zM10 30h1v1h-1zM19 30h1v1h1v-1h1v1h1v1h-1v1h-2v-1h-2v-1h1zM11 31h3v1h2v1h-4v-1h-1zM16 31h1v1h-1zM10 32h1v2h-2v-1h1zM26 32h2v1h-2zM16 33h3v1h-3zM23 33h1v1h-1zM25 33h1v1h-1z"/></svg>